<svg width="14" height="12" viewBox="0 0 14 12" fill="none" xmlns="http://www.w3.org/2000/svg">
<path d="M12.0235 10.4979L13.1277 1.17474L3.81032 0.0221866C3.7148 -0.00271652 3.61506 -0.00680778 3.51783 0.01019C3.4206 0.0271882 3.32815 0.0648787 3.24676 0.12071C3.16536 0.17654 3.09691 0.249208 3.04604 0.333793C2.99517 0.418378 2.96306 0.512906 2.9519 0.610977C2.94074 0.709049 2.95077 0.808374 2.98133 0.902228C3.0119 0.996082 3.06226 1.08227 3.12903 1.15497C3.1958 1.22767 3.27741 1.28517 3.36833 1.32358C3.45925 1.362 3.55737 1.38043 3.65603 1.37763L10.6367 2.25219L0.26395 10.3846C0.120143 10.4973 0.0270154 10.6626 0.00505239 10.844C-0.0169103 11.0254 0.0340913 11.2081 0.146838 11.3519C0.259584 11.4957 0.424841 11.5888 0.606251 11.6108C0.787662 11.6328 0.970366 11.5818 1.11417 11.469L11.4869 3.33664L10.6704 10.3243C10.649 10.5059 10.7007 10.6885 10.814 10.832C10.9273 10.9755 11.093 11.0681 11.2746 11.0894C11.4562 11.1108 11.6388 11.0591 11.7823 10.9458C11.9258 10.8324 12.0184 10.6668 12.0397 10.4852L12.0235 10.4979Z" fill="white"/>
</svg>
