<svg width="41" height="41" viewBox="0 0 41 41" fill="none" xmlns="http://www.w3.org/2000/svg">
<g clip-path="url(#clip0_405_657)">
<path d="M8.97587 40.0987H0.66236V13.3269H8.97587V40.0987ZM4.81464 9.67493C2.15625 9.67493 0 7.47303 0 4.81464C1.90276e-08 3.53772 0.507255 2.3131 1.41018 1.41018C2.3131 0.507255 3.53772 0 4.81464 0C6.09156 0 7.31619 0.507255 8.21911 1.41018C9.12203 2.3131 9.62928 3.53772 9.62928 4.81464C9.62928 7.47303 7.47214 9.67493 4.81464 9.67493ZM40.0907 40.0987H31.7951V27.0664C31.7951 23.9604 31.7324 19.9773 27.4727 19.9773C23.1504 19.9773 22.488 23.3518 22.488 26.8426V40.0987H14.1835V13.3269H22.1568V16.9788H22.2732C23.3831 14.8754 26.0943 12.6556 30.1392 12.6556C38.5529 12.6556 40.0996 18.1961 40.0996 25.3926V40.0987H40.0907Z" fill="black"/>
</g>
<defs>
<clipPath id="clip0_405_657">
<rect width="40.0996" height="40.0987" fill="white"/>
</clipPath>
</defs>
</svg>
