<svg width="56" height="56" viewBox="0 0 56 56" fill="none" xmlns="http://www.w3.org/2000/svg">
<g clip-path="url(#clip0_405_659)">
<g clip-path="url(#clip1_405_659)">
<path d="M21.3585 18.2864C22.5447 18.2864 23.4978 17.3332 23.4978 16.147C23.4978 14.9609 22.5447 14.0077 21.3585 14.0077C20.1723 14.0077 19.2192 14.9609 19.2192 16.147C19.2192 17.3332 20.1723 18.2864 21.3585 18.2864Z" fill="black"/>
<path fill-rule="evenodd" clip-rule="evenodd" d="M25.6583 22.9469C25.6583 20.6592 23.7308 19.0071 21.3584 19.0071C18.9861 19.0071 17.0586 20.6592 17.0586 22.9469V24.0271C17.0586 24.2177 17.1433 24.4084 17.2704 24.5355C17.3975 24.6626 17.5881 24.7473 17.7787 24.7473H24.9381C25.1288 24.7473 25.3194 24.6626 25.4465 24.5355C25.5736 24.4084 25.6583 24.2177 25.6583 24.0271V22.9469ZM17.0162 29.1954C17.0162 28.7741 17.1836 28.37 17.4815 28.0721C17.7794 27.7742 18.1835 27.6068 18.6048 27.6068H33.4319C33.8533 27.6068 34.2573 27.7742 34.5553 28.0721C34.8532 28.37 35.0206 28.7741 35.0206 29.1954C35.0206 29.6167 34.8532 30.0208 34.5553 30.3187C34.2573 30.6167 33.8533 30.784 33.4319 30.784H18.6048C18.1835 30.784 17.7794 30.6167 17.4815 30.3187C17.1836 30.0208 17.0162 29.6167 17.0162 29.1954ZM17.0162 35.5499C17.0162 35.1286 17.1836 34.7245 17.4815 34.4266C17.7794 34.1286 18.1835 33.9613 18.6048 33.9613H33.4319C33.8533 33.9613 34.2573 34.1286 34.5553 34.4266C34.8532 34.7245 35.0206 35.1286 35.0206 35.5499C35.0206 35.9712 34.8532 36.3753 34.5553 36.6732C34.2573 36.9711 33.8533 37.1385 33.4319 37.1385H18.6048C18.1835 37.1385 17.7794 36.9711 17.4815 36.6732C17.1836 36.3753 17.0162 35.9712 17.0162 35.5499Z" fill="black"/>
<path fill-rule="evenodd" clip-rule="evenodd" d="M10.1315 10.1315C10.1315 7.79725 12.0336 5.89514 14.3678 5.89514H28.5383C29.7287 5.89514 30.8513 6.39926 31.6414 7.2317L31.6541 7.24653L40.7876 17.2061C41.548 18.0174 41.9038 19.0786 41.9038 20.0868V41.9038C41.9038 44.238 40.0017 46.1401 37.6675 46.1401H14.3678C12.0336 46.1401 10.1315 44.238 10.1315 41.9038V10.1315ZM28.5362 10.1315H14.3678V41.9038H37.6675V20.0699L28.5679 10.1463L28.5616 10.1442L28.5362 10.1315Z" fill="black"/>
<path fill-rule="evenodd" clip-rule="evenodd" d="M28.5392 5.89514C29.1009 5.89514 29.6397 6.1183 30.0369 6.51554C30.4342 6.91277 30.6573 7.45153 30.6573 8.0133V17.9686H39.7866C40.0647 17.9686 40.3402 18.0234 40.5972 18.1299C40.8541 18.2363 41.0877 18.3923 41.2843 18.589C41.481 18.7857 41.6371 19.0192 41.7435 19.2762C41.85 19.5332 41.9047 19.8086 41.9047 20.0868C41.9047 20.365 41.85 20.6404 41.7435 20.8974C41.6371 21.1544 41.481 21.3879 41.2843 21.5846C41.0877 21.7813 40.8541 21.9373 40.5972 22.0437C40.3402 22.1502 40.0647 22.205 39.7866 22.205H28.5392C27.9774 22.205 27.4386 21.9818 27.0414 21.5846C26.6442 21.1873 26.421 20.6486 26.421 20.0868V8.0133C26.421 7.45153 26.6442 6.91277 27.0414 6.51554C27.4386 6.1183 27.9774 5.89514 28.5392 5.89514Z" fill="black"/>
</g>
</g>
<defs>
<clipPath id="clip0_405_659">
<rect width="55.3454" height="55.3454" fill="white"/>
</clipPath>
<clipPath id="clip1_405_659">
<rect width="42.3631" height="42.3631" fill="white" transform="translate(4.83875 4.83569)"/>
</clipPath>
</defs>
</svg>
