<svg width="22" height="22" viewBox="0 0 22 22" fill="none" xmlns="http://www.w3.org/2000/svg">
<rect width="22" height="22" rx="11" fill="#121111"/>
<path fill-rule="evenodd" clip-rule="evenodd" d="M11.9165 17.4166V21.0833H10.0832V17.4166H11.9165ZM16.1853 14.889L18.778 17.4818L17.4816 18.7781L14.8889 16.1854L16.1853 14.889ZM5.81438 14.889L7.11075 16.1854L4.51802 18.7781L3.22165 17.4818L5.81438 14.889ZM10.9999 5.9878C13.768 5.9878 16.012 8.2318 16.012 11C16.012 13.7681 13.768 16.0121 10.9999 16.0121C10.3413 16.0134 9.68896 15.8846 9.08029 15.6332C8.47162 15.3817 7.91858 15.0126 7.4529 14.5469C6.98723 14.0812 6.61808 13.5282 6.36663 12.9195C6.11518 12.3109 5.98639 11.6585 5.98763 11C5.98763 8.2318 8.23168 5.9878 10.9999 5.9878ZM10.9999 7.8211C9.24419 7.8211 7.82098 9.24436 7.82098 11.0035C7.82019 11.4207 7.90177 11.8339 8.06107 12.2196C8.22036 12.6052 8.45422 12.9555 8.74923 13.2505C9.34508 13.8464 10.1537 14.1804 10.9999 14.1788V7.8211ZM21.0832 10.0833V11.9166H17.4165V10.0833H21.0832ZM4.58316 10.0833V11.9166H0.916504V10.0833H4.58316ZM4.51802 3.22177L7.11075 5.81451L5.81438 7.11087L3.22165 4.51814L4.51802 3.22177ZM17.4817 3.22177L18.778 4.51814L16.1853 7.11087L14.8889 5.81451L17.4817 3.22177ZM11.9165 0.916626V4.58328H10.0831V0.916626H11.9165Z" fill="white"/>
</svg>
