<svg width="23" height="23" viewBox="0 0 23 23" fill="none" xmlns="http://www.w3.org/2000/svg">
<rect width="22.303" height="22.303" rx="11.1515" fill="#121111"/>
<path d="M11.1517 20.4446C9.88166 20.4446 8.68132 20.2005 7.55068 19.7123C6.42004 19.2241 5.43283 18.5582 4.58903 17.7144C3.74523 16.8706 3.07924 15.8833 2.59105 14.7527C2.10286 13.6221 1.85876 12.4217 1.85876 11.1517C1.85876 9.86617 2.10286 8.66212 2.59105 7.53953C3.07924 6.41695 3.74523 5.43344 4.58903 4.58903C5.43283 3.74461 6.42004 3.07862 7.55068 2.59105C8.68132 2.10348 9.88166 1.85938 11.1517 1.85876C12.4372 1.85876 13.6416 2.10286 14.7648 2.59105C15.888 3.07924 16.8712 3.74523 17.7144 4.58903C18.5575 5.43283 19.2235 6.41633 19.7123 7.53953C20.2011 8.66274 20.4452 9.86679 20.4446 11.1517C20.4446 12.4217 20.2005 13.6221 19.7123 14.7527C19.2242 15.8833 18.5582 16.8709 17.7144 17.7153C16.8706 18.5597 15.8871 19.2257 14.7639 19.7133C13.6407 20.2008 12.4366 20.4446 11.1517 20.4446ZM11.1517 18.5396C11.5544 17.982 11.9029 17.4012 12.1971 16.7971C12.4914 16.1931 12.7315 15.5503 12.9174 14.8689H9.38604C9.5719 15.5503 9.81196 16.1931 10.1062 16.7971C10.4005 17.4012 10.749 17.982 11.1517 18.5396ZM8.73553 18.1679C8.45674 17.6567 8.21296 17.1261 8.00418 16.576C7.7954 16.0258 7.621 15.4568 7.48099 14.8689H4.73957C5.18873 15.6433 5.75033 16.317 6.42438 16.8901C7.09843 17.4631 7.86881 17.8891 8.73553 18.1679ZM13.5679 18.1679C14.4352 17.8891 15.2059 17.4631 15.8799 16.8901C16.554 16.317 17.1153 15.6433 17.5638 14.8689H14.8224C14.683 15.4574 14.5089 16.0268 14.3001 16.5769C14.0914 17.127 13.8473 17.6574 13.5679 18.1679ZM3.94967 13.0103H7.10927C7.06281 12.7005 7.02811 12.3948 7.00519 12.0931C6.98227 11.7914 6.9705 11.4776 6.96988 11.1517C6.96926 10.8258 6.98103 10.5123 7.00519 10.2112C7.02935 9.91016 7.06404 9.60411 7.10927 9.29311H3.94967C3.87223 9.60287 3.81431 9.90892 3.7759 10.2112C3.73749 10.5136 3.71797 10.8271 3.71735 11.1517C3.71673 11.4763 3.73625 11.7901 3.7759 12.0931C3.81555 12.396 3.87347 12.7018 3.94967 13.0103ZM8.96786 13.0103H13.3355C13.382 12.7005 13.417 12.3948 13.4405 12.0931C13.4641 11.7914 13.4755 11.4776 13.4749 11.1517C13.4743 10.8258 13.4625 10.5123 13.4396 10.2112C13.4167 9.91016 13.382 9.60411 13.3355 9.29311H8.96786C8.92139 9.60287 8.8867 9.90892 8.86378 10.2112C8.84085 10.5136 8.82908 10.8271 8.82846 11.1517C8.82784 11.4763 8.83961 11.7901 8.86378 12.0931C8.88794 12.396 8.92263 12.7018 8.96786 13.0103ZM15.1941 13.0103H18.3537C18.4312 12.7005 18.4894 12.3948 18.5284 12.0931C18.5675 11.7914 18.5867 11.4776 18.586 11.1517C18.5854 10.8258 18.5662 10.5123 18.5284 10.2112C18.4906 9.91016 18.4324 9.60411 18.3537 9.29311H15.1941C15.2406 9.60287 15.2756 9.90892 15.2991 10.2112C15.3227 10.5136 15.3341 10.8271 15.3335 11.1517C15.3329 11.4763 15.3211 11.7901 15.2982 12.0931C15.2753 12.396 15.2406 12.7018 15.1941 13.0103ZM14.8224 7.43452H17.5638C17.1147 6.66011 16.5534 5.98637 15.8799 5.41331C15.2065 4.84025 14.4358 4.41432 13.5679 4.13553C13.8466 4.64664 14.0907 5.17727 14.3001 5.72741C14.5095 6.27755 14.6836 6.84659 14.8224 7.43452ZM9.38604 7.43452H12.9174C12.7315 6.75304 12.4914 6.11028 12.1971 5.50624C11.9029 4.9022 11.5544 4.32139 11.1517 3.76382C10.749 4.32139 10.4005 4.9022 10.1062 5.50624C9.81196 6.11028 9.5719 6.75304 9.38604 7.43452ZM4.73957 7.43452H7.48099C7.62038 6.84597 7.79478 6.27662 8.00418 5.72648C8.21358 5.17634 8.45736 4.64602 8.73553 4.13553C7.86819 4.41432 7.0975 4.84025 6.42345 5.41331C5.7494 5.98637 5.18811 6.66011 4.73957 7.43452Z" fill="white"/>
</svg>
