<svg width="58" height="58" viewBox="0 0 58 58" fill="none" xmlns="http://www.w3.org/2000/svg">
<path d="M18.0335 11.7507C19.5631 11.7507 20.9777 11.8704 22.2703 12.2247C23.5653 12.4616 24.6256 12.9356 25.5663 13.5268C26.5094 14.1189 27.2156 14.9479 27.6847 16.0138C28.1563 17.079 28.3932 18.3835 28.3932 19.803C28.3932 21.4618 28.039 22.8812 27.2156 23.9464C26.5094 25.014 25.3318 25.9594 23.9195 26.6704C25.9206 27.264 27.4502 28.3292 28.3932 29.7486C29.3363 31.168 29.9228 32.9465 29.9228 34.9596C29.9228 36.6184 29.5685 38.0378 28.9797 39.2227C28.3932 40.4075 27.4502 41.4727 26.3898 42.1836C25.2374 42.9447 23.9643 43.5048 22.6246 43.84C21.2123 44.1967 19.8 44.4336 18.3878 44.4336H2.61124V11.7507H18.0335ZM17.0904 25.0116C18.3854 25.0116 19.4458 24.6573 20.2692 24.0661C21.0926 23.4748 21.4469 22.4073 21.4469 21.1051C21.4469 20.3942 21.3272 19.6833 21.0926 19.2117C20.858 18.7402 20.5038 18.3811 20.0346 18.0269C19.5549 17.7575 19.039 17.5584 18.5027 17.4357C17.9138 17.316 17.3274 17.316 16.6189 17.316H9.79219V25.014L17.0904 25.0116ZM17.4447 38.9857C18.1508 38.9857 18.8569 38.866 19.4458 38.7487C20.0346 38.629 20.6235 38.3945 21.0926 38.0378C21.5704 37.6892 21.9713 37.2459 22.2703 36.7357C22.5049 36.1444 22.7418 35.4335 22.7418 34.6053C22.7418 32.9465 22.2703 31.7617 21.3296 30.9334C20.3865 30.2225 19.0915 29.8683 17.562 29.8683H9.79219V38.9881L17.4447 38.9857ZM40.1652 38.866C41.1067 39.8139 42.519 40.2878 44.402 40.2878C45.6969 40.2878 46.8746 39.9336 47.8153 39.3423C48.7584 38.6306 49.3473 37.9197 49.5818 37.2096H55.3505C54.4074 40.0509 52.9952 42.0639 51.1138 43.3661C49.2276 44.5509 46.9919 45.2618 44.2847 45.2618C42.5528 45.2644 40.8358 44.9429 39.2221 44.314C37.7695 43.7722 36.4746 42.8772 35.4545 41.7097C34.359 40.6214 33.5505 39.2783 33.1016 37.8008C32.5127 36.2617 32.2757 34.6053 32.2757 32.7095C32.2757 30.9335 32.5127 29.277 33.1016 27.7355C33.6664 26.2505 34.5051 24.8848 35.5742 23.7094C36.6322 22.6442 37.9272 21.6987 39.3394 21.1051C40.9115 20.4739 42.5906 20.1521 44.2847 20.1572C46.2858 20.1572 48.0523 20.5139 49.5818 21.3421C51.1138 22.1703 52.2891 23.1182 53.2298 24.54C54.1729 25.8422 54.8814 27.3813 55.3505 29.0401C55.5851 30.6965 55.7024 32.3553 55.5851 34.2487H38.516C38.516 36.1444 39.2221 37.9205 40.1652 38.8684M47.5808 26.4358C46.7573 25.6076 45.4624 25.1336 43.9304 25.1336C43.0322 25.1202 42.1439 25.3229 41.3405 25.7249C40.6344 26.0815 40.1652 26.5555 39.6937 27.0294C39.2576 27.4853 38.9705 28.063 38.8703 28.6858C38.7506 29.2794 38.6333 29.751 38.6333 30.2249H49.2276C48.993 28.4488 48.4042 27.2664 47.5808 26.4358ZM37.221 14.0008H50.4053V17.1987H37.2234L37.221 14.0008Z" fill="black"/>
</svg>
