<svg width="29" height="29" viewBox="0 0 29 29" fill="none" xmlns="http://www.w3.org/2000/svg">
<rect width="28.0507" height="28.6351" rx="14.0254" fill="black"/>
<path d="M14.7524 7.24463C15.5481 7.24675 15.9519 7.25099 16.3006 7.2609L16.4378 7.26585C16.5962 7.2715 16.7525 7.27858 16.9414 7.28706C17.6939 7.32243 18.2074 7.44125 18.6579 7.61594C19.1247 7.79558 19.5179 8.03888 19.9112 8.43141C20.2709 8.78485 20.5492 9.21255 20.7266 9.68467C20.9013 10.1352 21.0201 10.6487 21.0555 11.4019C21.064 11.59 21.0711 11.7463 21.0767 11.9055L21.081 12.0427C21.0916 12.3906 21.0958 12.7945 21.0972 13.5901L21.0979 14.1178V15.0443C21.0997 15.5601 21.0942 16.076 21.0817 16.5917L21.0774 16.7289C21.0718 16.8881 21.0647 17.0444 21.0562 17.2325C21.0208 17.9857 20.9006 18.4985 20.7266 18.9497C20.5492 19.4218 20.2709 19.8496 19.9112 20.203C19.5577 20.5628 19.13 20.8411 18.6579 21.0185C18.2074 21.1932 17.6939 21.312 16.9414 21.3473L16.4378 21.3686L16.3006 21.3728C15.9519 21.3827 15.5481 21.3876 14.7524 21.3891L14.2248 21.3898H13.299C12.7829 21.3916 12.2668 21.3862 11.7508 21.3735L11.6136 21.3693C11.4457 21.3629 11.2779 21.3556 11.1101 21.3473C10.3575 21.312 9.84406 21.1932 9.39283 21.0185C8.92097 20.841 8.49351 20.5627 8.14028 20.203C7.78025 19.8496 7.5017 19.4219 7.3241 18.9497C7.14941 18.4992 7.03059 17.9857 6.99523 17.2325L6.97401 16.7289L6.97048 16.5917C6.95744 16.076 6.95154 15.5601 6.95279 15.0443V13.5901C6.95084 13.0743 6.95602 12.5584 6.96835 12.0427L6.97331 11.9055C6.97896 11.7463 6.98604 11.59 6.99452 11.4019C7.02989 10.6487 7.14871 10.1359 7.3234 9.68467C7.50141 9.21236 7.78044 8.78464 8.14099 8.43141C8.49402 8.0718 8.92122 7.79351 9.39283 7.61594C9.84406 7.44125 10.3568 7.32243 11.1101 7.28706C11.2982 7.27858 11.4552 7.2715 11.6136 7.26585L11.7508 7.2616C12.2666 7.24904 12.7824 7.24361 13.2983 7.24534L14.7524 7.24463ZM14.0254 10.7809C13.0875 10.7809 12.188 11.1535 11.5248 11.8167C10.8617 12.4799 10.4891 13.3793 10.4891 14.3172C10.4891 15.2551 10.8617 16.1545 11.5248 16.8177C12.188 17.4809 13.0875 17.8535 14.0254 17.8535C14.9632 17.8535 15.8627 17.4809 16.5259 16.8177C17.1891 16.1545 17.5617 15.2551 17.5617 14.3172C17.5617 13.3793 17.1891 12.4799 16.5259 11.8167C15.8627 11.1535 14.9632 10.7809 14.0254 10.7809ZM14.0254 12.1954C14.304 12.1954 14.5799 12.2502 14.8374 12.3568C15.0948 12.4634 15.3287 12.6196 15.5258 12.8166C15.7228 13.0136 15.8792 13.2475 15.9858 13.5049C16.0925 13.7623 16.1474 14.0382 16.1475 14.3168C16.1475 14.5955 16.0927 14.8714 15.9861 15.1288C15.8795 15.3863 15.7233 15.6202 15.5263 15.8173C15.3293 16.0143 15.0954 16.1707 14.838 16.2773C14.5806 16.384 14.3047 16.4389 14.0261 16.439C13.4633 16.439 12.9237 16.2154 12.5258 15.8175C12.1278 15.4196 11.9043 14.8799 11.9043 14.3172C11.9043 13.7545 12.1278 13.2148 12.5258 12.8169C12.9237 12.419 13.4633 12.1954 14.0261 12.1954M17.7392 9.72003C17.5047 9.72003 17.2798 9.81317 17.114 9.97897C16.9482 10.1448 16.8551 10.3696 16.8551 10.6041C16.8551 10.8386 16.9482 11.0634 17.114 11.2292C17.2798 11.395 17.5047 11.4882 17.7392 11.4882C17.9736 11.4882 18.1985 11.395 18.3643 11.2292C18.5301 11.0634 18.6232 10.8386 18.6232 10.6041C18.6232 10.3696 18.5301 10.1448 18.3643 9.97897C18.1985 9.81317 17.9736 9.72003 17.7392 9.72003Z" fill="white"/>
</svg>
