<svg width="27" height="28" viewBox="0 0 27 28" fill="none" xmlns="http://www.w3.org/2000/svg">
<rect width="26.9507" height="27.5122" rx="13.4753" fill="black"/>
<path d="M9.55617 8.79515C9.55598 9.17109 9.40646 9.53156 9.1405 9.79726C8.87453 10.063 8.51391 10.2121 8.13797 10.2119C7.76203 10.2117 7.40156 10.0622 7.13586 9.79626C6.87017 9.53029 6.721 9.16968 6.72119 8.79373C6.72138 8.41779 6.8709 8.05732 7.13687 7.79163C7.40283 7.52593 7.76345 7.37677 8.13939 7.37695C8.51533 7.37714 8.8758 7.52666 9.1415 7.79263C9.4072 8.05859 9.55636 8.41921 9.55617 8.79515ZM9.5987 11.2616H6.76372V20.1351H9.5987V11.2616ZM14.078 11.2616H11.2572V20.1351H14.0496V15.4786C14.0496 12.8846 17.4303 12.6436 17.4303 15.4786V20.1351H20.2299V14.5147C20.2299 10.1418 15.2261 10.3048 14.0496 12.4523L14.078 11.2616Z" fill="white"/>
</svg>
