<svg width="29" height="29" viewBox="0 0 29 29" fill="none" xmlns="http://www.w3.org/2000/svg">
<rect width="28.0507" height="28.6351" rx="14.0254" fill="black"/>
<path d="M20.2977 8.04541H7.75443C6.89208 8.04541 6.19436 8.75097 6.19436 9.61331L6.18652 19.0207C6.18652 19.8831 6.89208 20.5886 7.75443 20.5886H20.2977C21.16 20.5886 21.8656 19.8831 21.8656 19.0207V9.61331C21.8656 8.75097 21.16 8.04541 20.2977 8.04541ZM19.9841 11.3772L14.4415 14.8423C14.1907 14.9991 13.8614 14.9991 13.6106 14.8423L8.06801 11.3772C7.9894 11.3331 7.92056 11.2735 7.86566 11.202C7.81076 11.1305 7.77094 11.0486 7.74861 10.9612C7.72628 10.8739 7.7219 10.7829 7.73574 10.6938C7.74958 10.6048 7.78135 10.5194 7.82912 10.443C7.8769 10.3665 7.9397 10.3006 8.0137 10.2491C8.08771 10.1976 8.17139 10.1617 8.25968 10.1435C8.34797 10.1253 8.43904 10.1252 8.52737 10.1432C8.6157 10.1612 8.69945 10.197 8.77357 10.2483L14.026 13.5331L19.2785 10.2483C19.3526 10.197 19.4364 10.1612 19.5247 10.1432C19.6131 10.1252 19.7041 10.1253 19.7924 10.1435C19.8807 10.1617 19.9644 10.1976 20.0384 10.2491C20.1124 10.3006 20.1752 10.3665 20.223 10.443C20.2707 10.5194 20.3025 10.6048 20.3164 10.6938C20.3302 10.7829 20.3258 10.8739 20.3035 10.9612C20.2812 11.0486 20.2413 11.1305 20.1864 11.202C20.1315 11.2735 20.0627 11.3331 19.9841 11.3772Z" fill="white"/>
</svg>
