<svg width="29" height="29" viewBox="0 0 29 29" fill="none" xmlns="http://www.w3.org/2000/svg">
<rect width="28.0507" height="28.6351" rx="14.0254" fill="black"/>
<path d="M19.6587 8.77881C18.9399 8.06945 18.0838 7.507 17.1403 7.12424C16.1968 6.74147 15.1848 6.54605 14.1632 6.54936C9.88285 6.54936 6.39426 9.95866 6.39426 14.1418C6.39426 15.4825 6.75488 16.7849 7.42908 17.9341L6.33154 21.8721L10.4473 20.8148C11.584 21.42 12.8619 21.7418 14.1632 21.7418C18.4436 21.7418 21.9322 18.3325 21.9322 14.1494C21.9322 12.1192 21.1247 10.2115 19.6587 8.77881ZM14.1632 20.4547C13.003 20.4547 11.8662 20.1483 10.8706 19.5737L10.6354 19.4358L8.18951 20.064L8.84019 17.7349L8.6834 17.4974C8.03864 16.4915 7.69635 15.3287 7.69562 14.1418C7.69562 10.6635 10.5962 7.8288 14.1554 7.8288C15.8801 7.8288 17.5029 8.48768 18.718 9.68285C19.3198 10.2681 19.7966 10.9642 20.121 11.731C20.4453 12.4977 20.6106 13.3198 20.6073 14.1494C20.623 17.6277 17.7224 20.4547 14.1632 20.4547ZM17.7067 15.7353C17.5107 15.6434 16.5543 15.1837 16.3818 15.1148C16.2015 15.0535 16.0761 15.0228 15.9428 15.2067C15.8095 15.3982 15.4411 15.8273 15.3313 15.9498C15.2216 16.0801 15.104 16.0954 14.908 15.9958C14.712 15.9039 14.0848 15.697 13.3479 15.0535C12.7678 14.5478 12.3837 13.9272 12.2661 13.7357C12.1563 13.5442 12.2504 13.4446 12.3523 13.345C12.4385 13.2607 12.5483 13.1228 12.6424 13.0155C12.7364 12.9083 12.7756 12.824 12.8383 12.7014C12.9011 12.5712 12.8697 12.4639 12.8227 12.372C12.7756 12.2801 12.3837 11.3454 12.2269 10.9623C12.0701 10.5946 11.9054 10.6405 11.7879 10.6329H11.4116C11.2783 10.6329 11.0745 10.6788 10.8941 10.8704C10.7217 11.0619 10.2199 11.5216 10.2199 12.4563C10.2199 13.3909 10.9177 14.295 11.0117 14.4176C11.1058 14.5478 12.3837 16.4631 14.3279 17.2829C14.7904 17.4821 15.151 17.597 15.4332 17.6813C15.8958 17.8269 16.3191 17.8039 16.6562 17.7579C17.0325 17.7043 17.8086 17.2982 17.9654 16.8539C18.13 16.4095 18.13 16.0341 18.0751 15.9498C18.0203 15.8656 17.9027 15.8273 17.7067 15.7353Z" fill="white"/>
</svg>
