<svg width="27" height="28" viewBox="0 0 27 28" fill="none" xmlns="http://www.w3.org/2000/svg">
<rect width="26.9507" height="27.5122" rx="13.4753" fill="black"/>
<path d="M9.9719 8.64355C10.4631 8.64355 10.9175 8.68199 11.3326 8.79577C11.7485 8.87188 12.0891 9.02409 12.3912 9.21397C12.6941 9.40411 12.9209 9.67036 13.0715 10.0127C13.223 10.3548 13.2991 10.7738 13.2991 11.2297C13.2991 11.7624 13.1853 12.2183 12.9209 12.5604C12.6941 12.9032 12.3158 13.2069 11.8623 13.4352C12.505 13.6259 12.9962 13.968 13.2991 14.4238C13.602 14.8797 13.7903 15.4509 13.7903 16.0974C13.7903 16.6302 13.6765 17.0861 13.4874 17.4666C13.2991 17.8471 12.9962 18.1892 12.6556 18.4175C12.2855 18.662 11.8767 18.8419 11.4464 18.9495C10.9928 19.0641 10.5392 19.1402 10.0857 19.1402H5.0188V8.64355H9.9719ZM9.66901 12.9025C10.0849 12.9025 10.4255 12.7887 10.6899 12.5988C10.9544 12.4089 11.0682 12.0661 11.0682 11.6479C11.0682 11.4195 11.0297 11.1912 10.9544 11.0398C10.879 10.8883 10.7653 10.773 10.6146 10.6592C10.4605 10.5727 10.2948 10.5088 10.1226 10.4694C9.93347 10.4309 9.74512 10.4309 9.51757 10.4309H7.32507V12.9032L9.66901 12.9025ZM9.78279 17.3905C10.0096 17.3905 10.2364 17.352 10.4255 17.3144C10.6146 17.2759 10.8037 17.2006 10.9544 17.0861C11.1078 16.9741 11.2366 16.8317 11.3326 16.6678C11.4079 16.478 11.4841 16.2496 11.4841 15.9837C11.4841 15.4509 11.3326 15.0704 11.0305 14.8044C10.7276 14.5761 10.3117 14.4623 9.82046 14.4623H7.32507V17.3912L9.78279 17.3905ZM17.0798 17.352C17.3822 17.6565 17.8358 17.8087 18.4405 17.8087C18.8564 17.8087 19.2347 17.6949 19.5368 17.505C19.8397 17.2764 20.0288 17.0481 20.1041 16.8201H21.9568C21.6539 17.7326 21.2004 18.3791 20.5961 18.7973C19.9904 19.1778 19.2723 19.4062 18.4029 19.4062C17.8467 19.407 17.2952 19.3037 16.7769 19.1017C16.3104 18.9277 15.8946 18.6403 15.5669 18.2653C15.2151 17.9158 14.9554 17.4845 14.8112 17.0099C14.6221 16.5156 14.546 15.9837 14.546 15.3748C14.546 14.8044 14.6221 14.2724 14.8112 13.7773C14.9926 13.3004 15.262 12.8618 15.6054 12.4843C15.9452 12.1422 16.361 11.8385 16.8146 11.6479C17.3195 11.4451 17.8588 11.3418 18.4029 11.3434C19.0456 11.3434 19.6129 11.458 20.1041 11.724C20.5961 11.99 20.9736 12.2944 21.2757 12.751C21.5786 13.1692 21.8062 13.6635 21.9568 14.1963C22.0322 14.7283 22.0698 15.261 22.0322 15.8691H16.5502C16.5502 16.478 16.7769 17.0484 17.0798 17.3528M19.4615 13.3599C19.197 13.0939 18.7811 12.9417 18.2891 12.9417C18.0006 12.9374 17.7153 13.0025 17.4573 13.1316C17.2305 13.2461 17.0798 13.3983 16.9284 13.5505C16.7884 13.697 16.6961 13.8825 16.6639 14.0825C16.6255 14.2732 16.5878 14.4246 16.5878 14.5768H19.9904C19.915 14.0064 19.7259 13.6266 19.4615 13.3599ZM16.1343 9.36619H20.3686V10.3932H16.135L16.1343 9.36619Z" fill="white"/>
</svg>
